<svg width="53.285156" height="69.000000" viewBox="0 0 53.2852 69" fill="none" xmlns="http://www.w3.org/2000/svg" xmlns:xlink="http://www.w3.org/1999/xlink">
	<desc>
			Created with Pixso.
	</desc>
	<defs/>
	<path id="Vector" d="M52.73 9.26C52.2 8.73 51.51 8.73 51.14 8.73L50.41 8.74L50.06 8.73C43.23 8.58 35.99 5.93 28.55 0.87L28.28 0.69C27.72 0.3 27.28 0 26.64 0C26 0 25.57 0.3 25.02 0.68L24.72 0.88C17.15 6.03 9.8 8.67 2.86 8.74L2.47 8.74C1.66 8.74 1.02 8.74 0.49 9.28C-0.03 9.81 -0.01 10.46 0 11.08C0 11.22 0.01 11.38 0.01 11.57L0.01 42.19C0.01 43.95 0.09 44.9 0.93 46.55C6 56.59 14.38 64.14 25.83 69L26.9 69C38.61 64.03 47.11 56.6 52.17 46.91C52.95 45.41 53.28 44.5 53.28 42.73L53.28 11.39C53.28 10.47 53.28 9.81 52.73 9.26ZM50.57 42.73C50.57 43.95 50.4 44.46 49.77 45.67C45.08 54.64 37.21 61.58 26.37 66.29C15.79 61.68 8.05 54.64 3.35 45.35C2.75 44.15 2.72 43.6 2.72 42.19L2.72 11.57C2.72 11.52 2.72 11.48 2.72 11.43L2.89 11.43C10.37 11.36 18.23 8.56 26.25 3.1L26.57 2.89C26.6 2.87 26.62 2.85 26.64 2.83C26.67 2.85 26.71 2.88 26.74 2.9L27.02 3.09C34.9 8.45 42.64 11.26 50 11.43C50.15 11.43 50.28 11.43 50.41 11.43L50.57 11.43L50.57 42.73L50.57 42.73Z" fill="#4F4F4F" fill-opacity="1.000000" fill-rule="nonzero"/>
</svg>
